<svg width="480" height="130" viewBox="0 0 480 130" fill="none" xmlns="http://www.w3.org/2000/svg">
<path d="M8.507 127V52.6995H36.019V127H8.507ZM22.625 37.405C18.281 37.405 14.6007 35.8967 11.584 32.88C8.56733 29.803 7.059 26.1528 7.059 21.9295C7.059 17.7062 8.56733 14.056 11.584 10.979C14.661 7.84166 18.3413 6.27299 22.625 6.27299C25.4607 6.27299 28.055 6.99699 30.408 8.44499C32.761 9.83266 34.6615 11.703 36.1095 14.056C37.5575 16.409 38.2815 19.0335 38.2815 21.9295C38.2815 26.1528 36.743 29.803 33.666 32.88C30.589 35.8967 26.9087 37.405 22.625 37.405ZM83.9331 5.36799C91.3541 5.36799 97.8399 6.18249 103.391 7.8115C108.941 9.44049 113.406 11.16 116.785 12.97C120.163 14.78 122.215 15.9867 122.939 16.59L109.907 38.4005C108.941 37.6765 107.282 36.6207 104.929 35.233C102.636 33.8453 99.8913 32.6085 96.6936 31.5225C93.5563 30.4365 90.2681 29.8935 86.8291 29.8935C82.1834 29.8935 78.4126 30.7382 75.5166 32.4275C72.6809 34.0565 71.2631 36.5 71.2631 39.758C71.2631 41.9903 72.0173 44.0115 73.5256 45.8215C75.0943 47.5712 77.4473 49.2605 80.5846 50.8895C83.7823 52.4582 87.8246 54.1777 92.7116 56.048C97.1763 57.677 101.369 59.6077 105.291 61.84C109.213 64.0723 112.652 66.727 115.608 69.804C118.625 72.8207 121.008 76.32 122.758 80.302C124.507 84.284 125.382 88.809 125.382 93.877C125.382 99.9103 124.145 105.159 121.672 109.624C119.198 114.028 115.819 117.678 111.536 120.574C107.312 123.47 102.486 125.612 97.0556 127C91.6859 128.448 86.1051 129.172 80.3131 129.172C72.1078 129.172 64.7471 128.237 58.2311 126.366C51.7754 124.496 46.5566 122.475 42.5746 120.303C38.5926 118.131 36.2094 116.683 35.4251 115.959L48.9096 93.2435C49.6336 93.7865 51.0213 94.6613 53.0726 95.868C55.1843 97.0747 57.7484 98.3417 60.7651 99.669C63.7818 100.936 66.9794 102.022 70.3581 102.927C73.7971 103.832 77.1758 104.284 80.4941 104.284C86.0448 104.284 90.2078 103.229 92.9831 101.117C95.7584 98.945 97.1461 96.1093 97.1461 92.61C97.1461 90.0157 96.2713 87.6928 94.5216 85.6415C92.7719 83.5902 90.1474 81.6595 86.6481 79.8495C83.1488 77.9792 78.7746 76.0183 73.5256 73.967C68.2766 71.8553 63.3594 69.2912 58.7741 66.2745C54.2491 63.2578 50.5688 59.487 47.7331 54.962C44.8974 50.437 43.4796 44.826 43.4796 38.129C43.4796 31.432 45.3499 25.64 49.0906 20.753C52.8916 15.8057 57.8691 12.0047 64.0231 9.34999C70.2374 6.69533 76.8741 5.36799 83.9331 5.36799ZM149.196 95.687C149.377 98.3417 150.222 100.695 151.73 102.746C153.239 104.797 155.32 106.426 157.975 107.633C160.69 108.779 163.887 109.352 167.568 109.352C171.067 109.352 174.204 108.99 176.98 108.266C179.815 107.542 182.259 106.637 184.31 105.551C186.422 104.465 188.051 103.349 189.197 102.203L199.876 119.217C198.368 120.846 196.226 122.445 193.451 124.014C190.736 125.522 187.146 126.759 182.681 127.724C178.217 128.689 172.575 129.172 165.758 129.172C157.552 129.172 150.252 127.633 143.857 124.556C137.461 121.479 132.424 116.954 128.743 110.981C125.063 105.008 123.223 97.7082 123.223 89.0805C123.223 81.8405 124.791 75.3245 127.929 69.5325C131.126 63.6802 135.742 59.0647 141.775 55.686C147.809 52.247 155.079 50.5275 163.586 50.5275C171.67 50.5275 178.669 52.0057 184.582 54.962C190.555 57.9183 195.14 62.3227 198.338 68.175C201.596 73.967 203.225 81.207 203.225 89.895C203.225 90.3777 203.195 91.343 203.134 92.791C203.134 94.239 203.074 95.2043 202.953 95.687H149.196ZM177.342 81.2975C177.281 79.3668 176.769 77.4663 175.803 75.596C174.838 73.6653 173.39 72.0967 171.459 70.89C169.529 69.623 167.055 68.9895 164.038 68.9895C161.022 68.9895 158.457 69.5928 156.346 70.7995C154.294 71.9458 152.726 73.4542 151.64 75.3245C150.554 77.1948 149.95 79.1858 149.83 81.2975H177.342ZM254.094 50.5275C259.283 50.5275 264.351 51.5833 269.298 53.695C274.246 55.8067 278.318 59.1552 281.516 63.7405C284.713 68.2655 286.312 74.2385 286.312 81.6595V127H258.71V86.1845C258.71 80.8752 257.443 76.8932 254.909 74.2385C252.375 71.5235 249.056 70.166 244.954 70.166C242.239 70.166 239.675 70.89 237.261 72.338C234.908 73.7257 232.978 75.7167 231.469 78.311C230.021 80.845 229.297 83.7712 229.297 87.0895V127H201.785V52.6995H229.297V63.65C230.021 61.659 231.53 59.668 233.822 57.677C236.175 55.6257 239.101 53.9363 242.601 52.609C246.16 51.2213 249.992 50.5275 254.094 50.5275ZM319.676 129.172C312.496 129.172 306.252 127.422 300.942 123.923C295.633 120.363 291.5 115.627 288.544 109.714C285.648 103.741 284.2 97.135 284.2 89.895C284.2 82.655 285.648 76.0787 288.544 70.166C291.5 64.193 295.633 59.4267 300.942 55.867C306.252 52.3073 312.496 50.5275 319.676 50.5275C324.442 50.5275 328.665 51.2817 332.346 52.79C336.026 54.238 339.013 55.9877 341.305 58.039C343.598 60.03 344.986 61.8702 345.468 63.5595V2.472H372.98V127H345.74V114.963C344.593 117.196 342.723 119.428 340.129 121.66C337.534 123.832 334.488 125.612 330.988 127C327.489 128.448 323.718 129.172 319.676 129.172ZM328.092 107.542C331.411 107.542 334.367 106.788 336.961 105.28C339.616 103.772 341.697 101.69 343.206 99.0355C344.714 96.3205 345.468 93.2737 345.468 89.895C345.468 86.5163 344.714 83.4997 343.206 80.845C341.697 78.13 339.616 76.0183 336.961 74.51C334.367 72.9413 331.411 72.157 328.092 72.157C324.895 72.157 321.999 72.9413 319.404 74.51C316.87 76.0183 314.849 78.13 313.341 80.845C311.893 83.4997 311.169 86.5163 311.169 89.895C311.169 93.2737 311.893 96.3205 313.341 99.0355C314.849 101.69 316.87 103.772 319.404 105.28C321.999 106.788 324.895 107.542 328.092 107.542Z" fill="black"/>
<path d="M387.128 128.344C384.365 128.344 381.976 127.355 379.96 125.376C377.981 123.36 376.992 120.971 376.992 118.208C376.992 115.371 377.981 112.963 379.96 110.984C381.976 108.968 384.365 107.96 387.128 107.96C389.965 107.96 392.373 108.968 394.352 110.984C396.331 112.963 397.32 115.371 397.32 118.208C397.32 120.971 396.331 123.36 394.352 125.376C392.373 127.355 389.965 128.344 387.128 128.344ZM436.432 127V119.552C436.096 120.299 435.237 121.381 433.856 122.8C432.512 124.219 430.72 125.507 428.48 126.664C426.24 127.784 423.626 128.344 420.64 128.344C416.16 128.344 412.24 127.261 408.88 125.096C405.52 122.893 402.906 119.963 401.04 116.304C399.173 112.608 398.24 108.52 398.24 104.04C398.24 99.56 399.173 95.4907 401.04 91.832C402.906 88.136 405.52 85.1867 408.88 82.984C412.24 80.7813 416.16 79.68 420.64 79.68C423.514 79.68 426.034 80.1467 428.2 81.08C430.365 81.976 432.12 83.0587 433.464 84.328C434.808 85.56 435.741 86.6987 436.264 87.744V81.024H453.176V127H436.432ZM414.928 104.04C414.928 106.131 415.413 108.016 416.384 109.696C417.354 111.339 418.642 112.627 420.248 113.56C421.89 114.493 423.701 114.96 425.68 114.96C427.733 114.96 429.544 114.493 431.112 113.56C432.68 112.627 433.912 111.339 434.808 109.696C435.741 108.016 436.208 106.131 436.208 104.04C436.208 101.949 435.741 100.083 434.808 98.44C433.912 96.76 432.68 95.4533 431.112 94.52C429.544 93.5493 427.733 93.064 425.68 93.064C423.701 93.064 421.89 93.5493 420.248 94.52C418.642 95.4533 417.354 96.76 416.384 98.44C415.413 100.083 414.928 101.949 414.928 104.04ZM455.578 127V81.024H472.602V127H455.578ZM464.314 71.56C461.626 71.56 459.349 70.6267 457.482 68.76C455.616 66.856 454.682 64.5973 454.682 61.984C454.682 59.3707 455.616 57.112 457.482 55.208C459.386 53.2667 461.664 52.296 464.314 52.296C466.069 52.296 467.674 52.744 469.13 53.64C470.586 54.4987 471.762 55.656 472.658 57.112C473.554 58.568 474.002 60.192 474.002 61.984C474.002 64.5973 473.05 66.856 471.146 68.76C469.242 70.6267 466.965 71.56 464.314 71.56Z" fill="#898989"/>
</svg>
