<svg width="619" height="134" viewBox="0 0 619 134" fill="none" xmlns="http://www.w3.org/2000/svg">
<circle cx="67" cy="67" r="67" fill="#FDFDFD"/>
<path d="M38 105V82.8939L66.5139 73.4147L38 68.1505L38.0002 42.0324L95 23V44.2482L67.9999 52.9982L95 60.0518V86.9803L38 105Z" fill="black"/>
<path d="M147.507 127V52.6995H175.019V127H147.507ZM161.625 37.405C157.281 37.405 153.601 35.8967 150.584 32.88C147.567 29.803 146.059 26.1528 146.059 21.9295C146.059 17.7062 147.567 14.056 150.584 10.979C153.661 7.84166 157.341 6.27299 161.625 6.27299C164.461 6.27299 167.055 6.99699 169.408 8.44499C171.761 9.83266 173.662 11.703 175.11 14.056C176.558 16.409 177.282 19.0335 177.282 21.9295C177.282 26.1528 175.743 29.803 172.666 32.88C169.589 35.8967 165.909 37.405 161.625 37.405ZM222.933 5.36799C230.354 5.36799 236.84 6.18249 242.391 7.8115C247.941 9.44049 252.406 11.16 255.785 12.97C259.163 14.78 261.215 15.9867 261.939 16.59L248.907 38.4005C247.941 37.6765 246.282 36.6207 243.929 35.233C241.636 33.8453 238.891 32.6085 235.694 31.5225C232.556 30.4365 229.268 29.8935 225.829 29.8935C221.183 29.8935 217.413 30.7382 214.517 32.4275C211.681 34.0565 210.263 36.5 210.263 39.758C210.263 41.9903 211.017 44.0115 212.526 45.8215C214.094 47.5712 216.447 49.2605 219.585 50.8895C222.782 52.4582 226.825 54.1777 231.712 56.048C236.176 57.677 240.369 59.6077 244.291 61.84C248.213 64.0723 251.652 66.727 254.608 69.804C257.625 72.8207 260.008 76.32 261.758 80.302C263.507 84.284 264.382 88.809 264.382 93.877C264.382 99.9103 263.145 105.159 260.672 109.624C258.198 114.028 254.819 117.678 250.536 120.574C246.312 123.47 241.486 125.612 236.056 127C230.686 128.448 225.105 129.172 219.313 129.172C211.108 129.172 203.747 128.237 197.231 126.366C190.775 124.496 185.557 122.475 181.575 120.303C177.593 118.131 175.209 116.683 174.425 115.959L187.91 93.2435C188.634 93.7865 190.021 94.6613 192.073 95.868C194.184 97.0747 196.748 98.3417 199.765 99.669C202.782 100.936 205.979 102.022 209.358 102.927C212.797 103.832 216.176 104.284 219.494 104.284C225.045 104.284 229.208 103.229 231.983 101.117C234.758 98.945 236.146 96.1093 236.146 92.61C236.146 90.0157 235.271 87.6928 233.522 85.6415C231.772 83.5902 229.147 81.6595 225.648 79.8495C222.149 77.9792 217.775 76.0183 212.526 73.967C207.277 71.8553 202.359 69.2912 197.774 66.2745C193.249 63.2578 189.569 59.487 186.733 54.962C183.897 50.437 182.48 44.826 182.48 38.129C182.48 31.432 184.35 25.64 188.091 20.753C191.892 15.8057 196.869 12.0047 203.023 9.34999C209.237 6.69533 215.874 5.36799 222.933 5.36799ZM288.196 95.687C288.377 98.3417 289.222 100.695 290.73 102.746C292.239 104.797 294.32 106.426 296.975 107.633C299.69 108.779 302.887 109.352 306.568 109.352C310.067 109.352 313.204 108.99 315.98 108.266C318.815 107.542 321.259 106.637 323.31 105.551C325.422 104.465 327.051 103.349 328.197 102.203L338.876 119.217C337.368 120.846 335.226 122.445 332.451 124.014C329.736 125.522 326.146 126.759 321.681 127.724C317.217 128.689 311.575 129.172 304.758 129.172C296.552 129.172 289.252 127.633 282.857 124.556C276.461 121.479 271.424 116.954 267.743 110.981C264.063 105.008 262.223 97.7082 262.223 89.0805C262.223 81.8405 263.791 75.3245 266.929 69.5325C270.126 63.6802 274.742 59.0647 280.775 55.686C286.809 52.247 294.079 50.5275 302.586 50.5275C310.67 50.5275 317.669 52.0057 323.582 54.962C329.555 57.9183 334.14 62.3227 337.338 68.175C340.596 73.967 342.225 81.207 342.225 89.895C342.225 90.3777 342.195 91.343 342.134 92.791C342.134 94.239 342.074 95.2043 341.953 95.687H288.196ZM316.342 81.2975C316.281 79.3668 315.769 77.4663 314.803 75.596C313.838 73.6653 312.39 72.0967 310.459 70.89C308.529 69.623 306.055 68.9895 303.038 68.9895C300.022 68.9895 297.457 69.5928 295.346 70.7995C293.294 71.9458 291.726 73.4542 290.64 75.3245C289.554 77.1948 288.95 79.1858 288.83 81.2975H316.342ZM393.094 50.5275C398.283 50.5275 403.351 51.5833 408.298 53.695C413.246 55.8067 417.318 59.1552 420.516 63.7405C423.713 68.2655 425.312 74.2385 425.312 81.6595V127H397.71V86.1845C397.71 80.8752 396.443 76.8932 393.909 74.2385C391.375 71.5235 388.056 70.166 383.954 70.166C381.239 70.166 378.675 70.89 376.261 72.338C373.908 73.7257 371.978 75.7167 370.469 78.311C369.021 80.845 368.297 83.7712 368.297 87.0895V127H340.785V52.6995H368.297V63.65C369.021 61.659 370.53 59.668 372.822 57.677C375.175 55.6257 378.101 53.9363 381.601 52.609C385.16 51.2213 388.992 50.5275 393.094 50.5275ZM458.676 129.172C451.496 129.172 445.252 127.422 439.942 123.923C434.633 120.363 430.5 115.627 427.544 109.714C424.648 103.741 423.2 97.135 423.2 89.895C423.2 82.655 424.648 76.0787 427.544 70.166C430.5 64.193 434.633 59.4267 439.942 55.867C445.252 52.3073 451.496 50.5275 458.676 50.5275C463.442 50.5275 467.665 51.2817 471.346 52.79C475.026 54.238 478.013 55.9877 480.305 58.039C482.598 60.03 483.986 61.8702 484.468 63.5595V2.472H511.98V127H484.74V114.963C483.593 117.196 481.723 119.428 479.129 121.66C476.534 123.832 473.488 125.612 469.988 127C466.489 128.448 462.718 129.172 458.676 129.172ZM467.092 107.542C470.411 107.542 473.367 106.788 475.961 105.28C478.616 103.772 480.697 101.69 482.206 99.0355C483.714 96.3205 484.468 93.2737 484.468 89.895C484.468 86.5163 483.714 83.4997 482.206 80.845C480.697 78.13 478.616 76.0183 475.961 74.51C473.367 72.9413 470.411 72.157 467.092 72.157C463.895 72.157 460.999 72.9413 458.404 74.51C455.87 76.0183 453.849 78.13 452.341 80.845C450.893 83.4997 450.169 86.5163 450.169 89.895C450.169 93.2737 450.893 96.3205 452.341 99.0355C453.849 101.69 455.87 103.772 458.404 105.28C460.999 106.788 463.895 107.542 467.092 107.542Z" fill="#FDFDFD"/>
<path d="M526.128 128.344C523.365 128.344 520.976 127.355 518.96 125.376C516.981 123.36 515.992 120.971 515.992 118.208C515.992 115.371 516.981 112.963 518.96 110.984C520.976 108.968 523.365 107.96 526.128 107.96C528.965 107.96 531.373 108.968 533.352 110.984C535.331 112.963 536.32 115.371 536.32 118.208C536.32 120.971 535.331 123.36 533.352 125.376C531.373 127.355 528.965 128.344 526.128 128.344ZM575.432 127V119.552C575.096 120.299 574.237 121.381 572.856 122.8C571.512 124.219 569.72 125.507 567.48 126.664C565.24 127.784 562.626 128.344 559.64 128.344C555.16 128.344 551.24 127.261 547.88 125.096C544.52 122.893 541.906 119.963 540.04 116.304C538.173 112.608 537.24 108.52 537.24 104.04C537.24 99.56 538.173 95.4907 540.04 91.832C541.906 88.136 544.52 85.1867 547.88 82.984C551.24 80.7813 555.16 79.68 559.64 79.68C562.514 79.68 565.034 80.1467 567.2 81.08C569.365 81.976 571.12 83.0587 572.464 84.328C573.808 85.56 574.741 86.6987 575.264 87.744V81.024H592.176V127H575.432ZM553.928 104.04C553.928 106.131 554.413 108.016 555.384 109.696C556.354 111.339 557.642 112.627 559.248 113.56C560.89 114.493 562.701 114.96 564.68 114.96C566.733 114.96 568.544 114.493 570.112 113.56C571.68 112.627 572.912 111.339 573.808 109.696C574.741 108.016 575.208 106.131 575.208 104.04C575.208 101.949 574.741 100.083 573.808 98.44C572.912 96.76 571.68 95.4533 570.112 94.52C568.544 93.5493 566.733 93.064 564.68 93.064C562.701 93.064 560.89 93.5493 559.248 94.52C557.642 95.4533 556.354 96.76 555.384 98.44C554.413 100.083 553.928 101.949 553.928 104.04ZM594.578 127V81.024H611.602V127H594.578ZM603.314 71.56C600.626 71.56 598.349 70.6267 596.482 68.76C594.616 66.856 593.682 64.5973 593.682 61.984C593.682 59.3707 594.616 57.112 596.482 55.208C598.386 53.2667 600.664 52.296 603.314 52.296C605.069 52.296 606.674 52.744 608.13 53.64C609.586 54.4987 610.762 55.656 611.658 57.112C612.554 58.568 613.002 60.192 613.002 61.984C613.002 64.5973 612.05 66.856 610.146 68.76C608.242 70.6267 605.965 71.56 603.314 71.56Z" fill="#F0F0F0"/>
</svg>
