<svg width="289" height="57" viewBox="0 0 289 57" fill="none" xmlns="http://www.w3.org/2000/svg"><path d="M61.76 56V23.16h12.16V56zM68 16.4q-2.88 0-4.88-2-2-2.04-2-4.84t2-4.84Q65.16 2.64 68 2.64q1.88 0 3.44.96a7.24 7.24 0 0 1 2.52 2.48q.96 1.56.96 3.48 0 2.8-2.04 4.84-2.04 2-4.88 2M94.298 2.24q4.92 0 8.6 1.08t5.92 2.28 2.72 1.6l-5.76 9.64q-.64-.48-2.2-1.4-1.52-.92-3.64-1.64-2.08-.72-4.36-.72-3.08 0-5 1.12-1.88 1.08-1.88 3.24 0 1.48 1 2.68 1.04 1.16 3.12 2.24 2.12 1.04 5.36 2.28a36.6 36.6 0 0 1 5.56 2.56 20 20 0 0 1 4.56 3.52 15.1 15.1 0 0 1 3.16 4.64q1.16 2.64 1.16 6 0 4-1.64 6.96-1.64 2.92-4.48 4.84-2.8 1.92-6.4 2.84-3.56.96-7.4.96-5.44 0-9.76-1.24-4.28-1.24-6.92-2.68t-3.16-1.92l5.96-10.04q.48.36 1.84 1.16 1.4.8 3.4 1.68 2 .84 4.24 1.44 2.28.6 4.48.6 3.68 0 5.52-1.4 1.84-1.44 1.84-3.76 0-1.72-1.16-3.08-1.161-1.36-3.48-2.56-2.32-1.24-5.8-2.6a37 37 0 0 1-6.52-3.4q-3-2-4.88-5t-1.88-7.44 2.48-7.68q2.52-3.28 6.6-5.04 4.12-1.76 8.8-1.76m28.045 39.92q.12 1.76 1.12 3.12t2.76 2.16q1.8.76 4.24.76 2.32 0 4.16-.48 1.88-.48 3.24-1.2 1.4-.72 2.16-1.48l4.72 7.52q-1 1.08-2.84 2.12-1.8 1-4.76 1.64t-7.48.64q-5.44 0-9.68-2.04t-6.68-6-2.44-9.68q0-4.8 2.08-8.64 2.12-3.88 6.12-6.12 4-2.28 9.64-2.28 5.36 0 9.28 1.96 3.96 1.96 6.08 5.84 2.16 3.84 2.16 9.6 0 .32-.04 1.28 0 .96-.08 1.28zm12.44-6.36q-.04-1.28-.68-2.52-.64-1.28-1.92-2.08-1.28-.84-3.28-.84t-3.4.8q-1.36.76-2.08 2a5.85 5.85 0 0 0-.8 2.64zm33.124-13.6q3.44 0 6.72 1.4t5.4 4.44q2.12 3 2.12 7.92V56h-12.2V37.96q0-3.52-1.68-5.28-1.68-1.8-4.4-1.8-1.8 0-3.4.96-1.56.92-2.56 2.64-.96 1.68-.96 3.88V56h-12.16V23.16h12.16V28q.48-1.32 2-2.64 1.56-1.36 3.88-2.24 2.36-.92 5.08-.92m28.186 34.76q-4.76 0-8.28-2.32-3.52-2.36-5.48-6.28-1.92-3.96-1.92-8.76t1.92-8.72q1.96-3.96 5.48-6.32t8.28-2.36q3.16 0 5.6 1 2.44.96 3.96 2.32 1.52 1.32 1.84 2.44v-27h12.16V56h-12.04v-5.32q-.76 1.48-2.48 2.96-1.72 1.44-4.04 2.36-2.32.96-5 .96m3.72-9.56q2.2 0 3.92-1a7.23 7.23 0 0 0 2.76-2.76q1-1.8 1-4.04t-1-4a7.15 7.15 0 0 0-2.76-2.8q-1.72-1.04-3.92-1.04-2.12 0-3.84 1.04-1.68 1-2.68 2.8-.96 1.76-.96 4t.96 4.04q1 1.76 2.68 2.76 1.72 1 3.84 1" fill="#000"/><path d="M228.661 56.96q-2.96 0-5.12-2.12-2.12-2.16-2.12-5.12 0-3.04 2.12-5.16 2.16-2.16 5.12-2.16 3.039 0 5.16 2.16 2.12 2.12 2.12 5.16 0 2.96-2.12 5.12-2.121 2.12-5.16 2.12m34.417-.96v-5.32q-.36.8-1.84 2.32-1.44 1.52-3.84 2.76-2.4 1.2-5.6 1.2-4.8 0-8.4-2.32-3.6-2.36-5.6-6.28-2-3.96-2-8.76t2-8.72q2-3.96 5.6-6.32t8.4-2.36q3.08 0 5.4 1 2.32.96 3.76 2.32 1.44 1.32 2 2.44v-4.8h12.08V56zm-15.36-16.4q0 2.24 1.04 4.04a7.6 7.6 0 0 0 2.76 2.76q1.76 1 3.88 1 2.2 0 3.88-1t2.64-2.76q1-1.8 1-4.04t-1-4q-.96-1.8-2.64-2.8-1.68-1.04-3.88-1.04-2.12 0-3.88 1.04-1.72 1-2.76 2.8-1.04 1.76-1.04 4M275.954 56V23.16h12.16V56zm6.24-39.6q-2.88 0-4.88-2-2-2.04-2-4.84t2-4.84q2.04-2.08 4.88-2.08 1.88 0 3.44.96a7.24 7.24 0 0 1 2.52 2.48q.96 1.56.96 3.48 0 2.8-2.04 4.84-2.04 2-4.88 2" fill="#000" fill-opacity=".25"/><path d="M27 57c14.912 0 27-12.088 27-27S41.912 3 27 3 0 15.088 0 30s12.088 27 27 27" fill="#000"/><path d="M14 50V36.738l12.769-4.251L14 31.575V18.516L41 9v13.566l-11.6 4.15 11.6.81V40.99z" fill="#fff" stroke="#fff"/></svg>